<?xml version="1.0" standalone="no"?>
<!DOCTYPE svg PUBLIC "-//W3C//DTD SVG 20010904//EN"
 "http://www.w3.org/TR/2001/REC-SVG-20010904/DTD/svg10.dtd">
<svg version="1.0" xmlns="http://www.w3.org/2000/svg"
 width="650.000000pt" height="318.000000pt" viewBox="0 0 650.000000 318.000000"
 preserveAspectRatio="xMidYMid meet">

<g transform="translate(0.000000,318.000000) scale(0.100000,-0.100000)"
fill="#000000" stroke="none">
<path d="M0 1590 l0 -1590 3250 0 3250 0 0 1590 0 1590 -3250 0 -3250 0 0
-1590z m1970 270 l0 -60 -49 0 c-53 0 -61 -8 -61 -61 0 -29 1 -29 56 -29 54 0
56 -1 50 -22 -3 -13 -6 -40 -6 -60 l0 -38 -50 0 -50 0 0 -165 0 -165 -65 0
-65 0 0 165 0 165 -40 0 -41 0 3 58 3 57 36 3 36 3 5 70 c8 107 45 136 176
138 l62 1 0 -60z m1330 -55 l0 -105 59 6 c78 9 125 -1 158 -32 28 -26 28 -28
31 -162 3 -156 -7 -191 -66 -226 -40 -23 -139 -31 -246 -21 l-76 7 0 307 0
308 63 10 c34 6 65 11 70 12 4 0 7 -46 7 -104z m1290 -88 l5 -186 50 84 50 84
79 1 78 0 -15 -22 c-9 -13 -39 -60 -68 -106 l-51 -83 66 -109 c36 -60 66 -112
66 -115 0 -3 -33 -5 -74 -5 l-74 0 -53 92 -54 91 -5 -89 -5 -89 -73 -3 -72 -3
2 313 3 312 60 12 c33 6 65 10 70 9 6 -1 12 -76 15 -188z m-2328 -34 c56 -32
63 -58 66 -250 l4 -173 -61 0 c-44 0 -63 4 -67 14 -5 12 -11 12 -42 -1 -24
-10 -56 -14 -96 -11 -51 4 -62 9 -83 34 -42 53 -43 145 0 184 29 27 89 42 154
38 52 -3 53 -2 53 24 0 15 -4 30 -10 33 -5 3 -48 9 -95 12 l-85 6 0 60 0 60
114 -5 c89 -4 122 -10 148 -25z m438 12 c5 -3 10 -30 10 -60 l0 -54 -90 6
c-117 8 -120 5 -120 -102 0 -106 3 -109 120 -103 l90 4 0 -57 0 -56 -46 -7
c-77 -10 -162 -7 -197 8 -92 38 -133 176 -92 312 28 94 90 127 227 120 48 -3
92 -7 98 -11z m348 -9 c46 -24 72 -87 72 -174 l0 -72 -120 0 c-111 0 -120 -1
-120 -19 0 -36 24 -44 129 -39 l99 4 4 -54 c2 -41 -1 -56 -12 -61 -8 -3 -69
-6 -136 -6 -112 0 -123 2 -156 25 -57 39 -72 72 -76 178 -8 182 51 248 214
238 40 -2 85 -11 102 -20z m849 11 c11 -1 19 -5 17 -8 -2 -4 6 -15 17 -25 40
-36 49 -69 49 -174 0 -147 -25 -195 -118 -221 -58 -16 -167 -7 -200 18 -53 39
-65 67 -70 157 -6 118 3 170 38 210 47 53 84 59 267 43z m434 -13 c20 -11 44
-39 57 -64 21 -40 23 -56 20 -145 -4 -121 -21 -159 -88 -192 -61 -32 -159 -32
-220 0 -64 31 -84 77 -85 187 0 145 23 197 100 226 55 20 172 13 216 -12z"/>
<path d="M3317 1583 c-16 -4 -17 -16 -15 -106 l3 -102 45 3 c27 2 50 10 58 20
15 19 16 145 2 173 -11 19 -48 24 -93 12z"/>
<path d="M2094 1405 c-10 -24 4 -45 28 -45 47 0 68 12 68 36 0 22 -4 24 -45
24 -31 0 -47 -5 -51 -15z"/>
<path d="M2902 1594 c-30 -21 -30 -62 1 -58 12 1 37 3 55 3 34 1 41 16 20 43
-20 25 -51 30 -76 12z"/>
<path d="M3748 1579 c-15 -8 -18 -24 -18 -92 0 -91 8 -107 51 -107 56 0 59 5
59 99 0 54 -5 92 -12 99 -15 15 -57 15 -80 1z"/>
<path d="M4170 1580 c-11 -7 -15 -30 -15 -95 0 -65 4 -88 15 -95 21 -14 74
-12 88 2 15 15 16 152 2 179 -12 21 -63 26 -90 9z"/>
</g>
</svg>
