<?xml version="1.0" standalone="no"?>
<!DOCTYPE svg PUBLIC "-//W3C//DTD SVG 20010904//EN"
 "http://www.w3.org/TR/2001/REC-SVG-20010904/DTD/svg10.dtd">
<svg version="1.0" xmlns="http://www.w3.org/2000/svg"
 width="321.000000pt" height="157.000000pt" viewBox="0 0 321.000000 157.000000"
 preserveAspectRatio="xMidYMid meet">

<g transform="translate(0.000000,157.000000) scale(0.100000,-0.100000)"
fill="#000000" stroke="none">
<path d="M0 785 l0 -785 1605 0 1605 0 0 785 0 785 -1605 0 -1605 0 0 -785z
m976 133 c2 -23 -2 -27 -24 -30 -19 -2 -28 -10 -30 -25 -3 -19 1 -23 23 -23
23 0 26 -4 23 -27 -2 -20 -9 -29 -25 -31 -22 -3 -23 -8 -23 -83 l0 -79 -35 0
-35 0 0 80 c0 64 -3 80 -15 80 -10 0 -15 10 -15 30 0 19 5 30 14 30 8 0 16 16
20 39 7 49 38 73 85 69 29 -3 34 -7 37 -30z m654 -26 l0 -49 45 1 c65 1 78
-16 79 -108 0 -58 -4 -80 -16 -93 -19 -18 -111 -30 -153 -19 l-25 6 0 149 c0
157 0 159 48 160 20 1 22 -4 22 -47z m638 -37 c-2 -47 0 -85 4 -85 3 0 15 16
27 35 17 30 26 35 56 35 19 0 35 -3 35 -7 0 -5 -13 -28 -30 -53 l-29 -44 29
-52 c17 -28 30 -54 30 -58 0 -3 -15 -6 -34 -6 -30 0 -38 5 -58 41 l-23 42 -5
-39 c-5 -37 -7 -39 -42 -42 l-38 -3 0 155 c0 168 -2 162 58 165 23 1 23 -1 20
-84z m-942 -15 c9 0 14 -11 14 -30 0 -30 -1 -31 -45 -29 -58 3 -70 -8 -58 -58
9 -37 10 -38 56 -37 45 0 47 -1 47 -27 0 -31 -15 -39 -76 -39 -69 0 -94 30
-94 113 0 53 4 67 23 84 27 25 52 33 91 27 16 -2 35 -4 42 -4z m163 -1 c38
-14 51 -35 51 -88 l0 -41 -61 0 c-44 0 -59 -3 -56 -12 2 -9 24 -13 60 -13 55
0 57 0 57 -26 0 -31 -15 -39 -76 -39 -50 0 -98 21 -108 45 -11 30 -6 130 8
148 13 16 52 34 82 36 6 1 25 -4 43 -10z m426 -3 c43 -18 55 -42 55 -106 0
-86 -59 -127 -148 -104 -31 9 -52 53 -52 112 0 71 28 103 98 111 7 0 28 -5 47
-13z m243 -22 c27 -30 30 -109 7 -154 -29 -55 -142 -54 -171 2 -21 40 -15 129
10 157 35 38 117 35 154 -5z m-1028 6 c17 -17 20 -33 20 -109 l0 -89 -76 0
c-61 0 -80 4 -95 19 -44 44 -8 109 61 109 29 0 40 4 40 15 0 11 -12 15 -45 15
-43 0 -45 1 -45 30 l0 30 60 0 c47 0 64 -4 80 -20z"/>
<path d="M1648 782 c-14 -3 -18 -14 -18 -53 0 -49 1 -50 28 -47 24 3 27 8 30
44 3 44 -11 63 -40 56z"/>
<path d="M1426 775 c-4 -11 1 -15 19 -15 16 0 25 6 25 15 0 8 -9 15 -19 15
-10 0 -21 -7 -25 -15z"/>
<path d="M1850 775 c-6 -7 -10 -31 -8 -52 3 -33 6 -38 28 -38 22 0 25 5 28 42
2 33 -1 44 -16 52 -15 8 -23 7 -32 -4z"/>
<path d="M2061 776 c-7 -8 -11 -32 -9 -53 3 -33 6 -38 28 -38 22 0 25 5 28 38
3 36 -10 67 -28 67 -4 0 -13 -6 -19 -14z"/>
<path d="M1033 688 c2 -7 12 -13 22 -13 10 0 20 6 23 13 2 7 -6 12 -23 12 -17
0 -25 -5 -22 -12z"/>
</g>
</svg>
